<svg xmlns="http://www.w3.org/2000/svg" width="49" height="48" fill="none" viewBox="0 0 49 48"><path fill-rule="evenodd" stroke="url(#paint0_linear_1187_36306)" stroke-linecap="round" stroke-linejoin="round" stroke-width="1.5" d="M14.5 44c6.139 0 11.164-4.95 11.164-10.998C25.664 26.954 20.639 22 14.5 22 8.36 22 3.338 26.95 3.338 33.002c0 2.468.846 4.744 2.25 6.584A11.213 11.213 0 0014.5 44z" clip-rule="evenodd"></path><path fill-rule="evenodd" stroke="url(#paint1_linear_1187_36306)" stroke-linecap="round" stroke-linejoin="round" stroke-width="1.5" d="M14.5 28l5.074 5-5.074 5.001-5.074-5L14.5 28z" clip-rule="evenodd"></path><path stroke="url(#paint2_linear_1187_36306)" stroke-linecap="round" stroke-linejoin="round" stroke-width="1.5" d="M30.431 39.742h3.306c4.562 0 8.262-3.646 8.262-8.142"></path><path stroke="url(#paint3_linear_1187_36306)" stroke-linecap="round" stroke-linejoin="round" stroke-width="1.5" d="M18.863 8.258h-3.305c-4.563 0-8.262 3.646-8.262 8.142"></path><path stroke="url(#paint4_linear_1187_36306)" stroke-linecap="round" stroke-linejoin="round" stroke-width="1.5" d="M16.386 5.814l2.477 2.444-2.477 2.442"></path><path fill="url(#paint5_linear_1187_36306)" fill-opacity="0.2" fill-rule="evenodd" d="M45.956 15c0 6.076-4.997 11-11.162 11-6.165 0-11.162-4.924-11.162-11S28.63 4 34.794 4c6.163 0 11.162 4.924 11.162 11z" clip-rule="evenodd"></path><path stroke="url(#paint6_linear_1187_36306)" stroke-linecap="round" stroke-linejoin="round" stroke-width="1.5" d="M45.956 15c0 6.076-4.997 11-11.162 11-6.165 0-11.162-4.924-11.162-11S28.63 4 34.794 4c6.163 0 11.162 4.924 11.162 11"></path><path stroke="url(#paint7_linear_1187_36306)" stroke-linecap="round" stroke-linejoin="round" stroke-width="1.5" d="M32.909 42.186l-2.478-2.442 2.478-2.442"></path><defs><linearGradient id="paint0_linear_1187_36306" x1="14.501" x2="14.096" y1="43.214" y2="22.793" gradientUnits="userSpaceOnUse"><stop offset="0.002" stop-color="#7B61FF"></stop><stop offset="1" stop-color="#FFAA27"></stop></linearGradient><linearGradient id="paint1_linear_1187_36306" x1="12.144" x2="16.689" y1="35.322" y2="30.521" gradientUnits="userSpaceOnUse"><stop offset="0.002" stop-color="#7B61FF"></stop><stop offset="1" stop-color="#FFAA27"></stop></linearGradient><linearGradient id="paint2_linear_1187_36306" x1="36.215" x2="36.108" y1="39.451" y2="31.892" gradientUnits="userSpaceOnUse"><stop offset="0.002" stop-color="#7B61FF"></stop><stop offset="1" stop-color="#FFAA27"></stop></linearGradient><linearGradient id="paint3_linear_1187_36306" x1="13.08" x2="12.973" y1="16.109" y2="8.55" gradientUnits="userSpaceOnUse"><stop offset="0.002" stop-color="#7B61FF"></stop><stop offset="1" stop-color="#FFAA27"></stop></linearGradient><linearGradient id="paint4_linear_1187_36306" x1="17.625" x2="17.445" y1="10.525" y2="5.995" gradientUnits="userSpaceOnUse"><stop offset="0.002" stop-color="#7B61FF"></stop><stop offset="1" stop-color="#FFAA27"></stop></linearGradient><linearGradient id="paint5_linear_1187_36306" x1="34.794" x2="34.389" y1="25.214" y2="4.793" gradientUnits="userSpaceOnUse"><stop offset="0.002" stop-color="#7B61FF"></stop><stop offset="1" stop-color="#FFAA27"></stop></linearGradient><linearGradient id="paint6_linear_1187_36306" x1="34.794" x2="34.389" y1="25.214" y2="4.793" gradientUnits="userSpaceOnUse"><stop offset="0.002" stop-color="#7B61FF"></stop><stop offset="1" stop-color="#FFAA27"></stop></linearGradient><linearGradient id="paint7_linear_1187_36306" x1="31.67" x2="31.491" y1="42.011" y2="37.483" gradientUnits="userSpaceOnUse"><stop offset="0.002" stop-color="#7B61FF"></stop><stop offset="1" stop-color="#FFAA27"></stop></linearGradient></defs></svg>